<svg width="16" height="16" viewBox="0 0 16 16" fill="none" xmlns="http://www.w3.org/2000/svg">
<g clip-path="url(#clip0_11992_22026)">
<path d="M0.252792 3.9668H15.7574C15.8964 3.9668 16.0102 4.08055 16.0102 4.21959V7.23624C16.0102 7.37528 15.8964 7.48903 15.7574 7.48903H0.252792C0.113757 7.48903 0 7.37528 0 7.23624V4.21959C0 4.08055 0.113757 3.9668 0.252792 3.9668Z" fill="#FF505D"/>
<path d="M2.01228 7.48828H13.9988C14.0915 7.48828 14.1674 7.56412 14.1674 7.65681V15.0678C14.1674 15.1605 14.0915 15.2364 13.9988 15.2364H2.01228C1.91959 15.2364 1.84375 15.1605 1.84375 15.0678V7.65681C1.84375 7.56412 1.91959 7.48828 2.01228 7.48828Z" fill="#FF6174"/>
<path d="M3.6527 3.03363C3.6527 3.03363 1.81574 2.67972 1.4492 2.55332L2.09803 3.48655L0.926758 3.95211C0.926758 3.95211 3.66745 4.4598 6.6209 4.02162L5.19895 3.377L3.6527 3.03363ZM4.97354 0.811163C4.04032 0.644741 3.59582 0.969158 3.59582 0.969158L3.34092 2.58071C3.34092 2.58071 4.00029 2.132 4.78184 2.32581C5.79933 2.58071 7.07171 4.02162 7.07171 4.02162V2.91987C7.07171 2.91987 6.2375 1.03657 4.97354 0.811163ZM13.9877 3.48655L14.6386 2.55332C14.2721 2.67972 12.4351 3.03363 12.4351 3.03363L10.8889 3.377L9.46692 4.02373C12.4204 4.4619 15.1611 3.95211 15.1611 3.95211L13.9877 3.48655ZM12.7448 2.58071L12.492 0.971265C12.492 0.971265 12.0475 0.646848 11.1143 0.81327C9.85032 1.03868 9.01611 2.92198 9.01611 2.92198V4.02373C9.01611 4.02373 10.2864 2.58281 11.3039 2.32792C12.0833 2.132 12.7448 2.58071 12.7448 2.58071Z" fill="#FFCA3E"/>
<path d="M6.95215 2.76367H9.05875V15.2369H6.95215V2.76367Z" fill="#FFCA3E"/>
<path d="M6.95215 7.54785H9.05875V15.2369H6.95215V7.54785Z" fill="#FFB82C"/>
<path d="M5.47312 2.57182C4.55464 2.04095 3.46342 2.22001 3.34334 2.58235C3.21062 2.9805 3.86156 3.40392 4.80322 3.89687C5.42256 4.22128 7.07413 4.02326 7.07413 4.02326C7.07413 4.02326 6.39159 3.10057 5.47312 2.57182ZM12.7451 2.58024C12.625 2.21791 11.5338 2.03885 10.6153 2.56971C9.69685 3.10057 9.01431 4.02116 9.01431 4.02116C9.01431 4.02116 10.668 4.21918 11.2852 3.89476C12.2269 3.40392 12.8778 2.97839 12.7451 2.58024Z" fill="#FFB82C"/>
</g>
<defs>
<clipPath id="clip0_11992_22026">
<rect width="16" height="16" fill="white"/>
</clipPath>
</defs>
</svg>
